<?xml version="1.0" encoding="UTF-8" standalone="no"?>
<!-- Created with Inkscape (http://www.inkscape.org/) -->

<svg
   width="512"
   height="512"
   viewBox="0 0 512 512"
   version="1.1"
   id="svg1"
   xml:space="preserve"
   inkscape:version="1.4.4 (dcaf3e7d9e, 2026-05-05)"
   sodipodi:docname="TigerDine Emblem Vector.svg"
   xmlns:inkscape="http://www.inkscape.org/namespaces/inkscape"
   xmlns:sodipodi="http://sodipodi.sourceforge.net/DTD/sodipodi-0.dtd"
   xmlns="http://www.w3.org/2000/svg"
   xmlns:svg="http://www.w3.org/2000/svg"><sodipodi:namedview
     id="namedview1"
     pagecolor="#ffffff"
     bordercolor="#111111"
     borderopacity="1"
     inkscape:showpageshadow="0"
     inkscape:pageopacity="0"
     inkscape:pagecheckerboard="1"
     inkscape:deskcolor="#d1d1d1"
     inkscape:document-units="px"
     inkscape:zoom="1"
     inkscape:cx="277"
     inkscape:cy="294.5"
     inkscape:window-width="1512"
     inkscape:window-height="842"
     inkscape:window-x="0"
     inkscape:window-y="34"
     inkscape:window-maximized="1"
     inkscape:current-layer="layer4"><inkscape:page
       x="0"
       y="0"
       width="512"
       height="512"
       id="page2"
       margin="0"
       bleed="0" /></sodipodi:namedview><defs
     id="defs1" /><g
     inkscape:groupmode="layer"
     id="layer2"
     inkscape:label="Traced"
     style="opacity:1"><g
       inkscape:groupmode="layer"
       id="layer3"
       inkscape:label="Paw"
       style="display:inline;opacity:1"><path
         id="path1"
         style="fill:#f76900;fill-opacity:1;stroke:#000000;stroke-width:10;stroke-dasharray:none;stroke-opacity:1"
         d="M 263.62109,63.144531 C 255.6333,63.444824 247.21875,64.875 240,67.5 c -19.25,7 -37.25,45 -37.25,45 -16,43.75 16.5,53.5 30.75,56.75 14.25,3.25 56,1.5 66,-35.75 10,-37.25 -1.5,-54 -7,-62.75 -3.4375,-5.46875 -15.56592,-8.105957 -28.87891,-7.605469 z M 157.87305,80.224609 C 142.24951,80.289551 133.0625,93.25 117.75,114.25 c -17.5,24 -20.5,45 -20.5,45 -6,24.25 16.25,33.25 16.25,33.25 0,0 33,16.25 48.25,2.5 15.25,-13.75 24.75,-50.5 29.25,-68 4.5,-17.5 -5.75,-41.75 -26,-46 -2.53125,-0.53125 -4.89502,-0.784668 -7.12695,-0.775391 z m 206.41797,10.197266 c -25.39405,0.913576 -47.86133,40.570315 -47.86133,40.570315 -18.38477,27.22361 -23.33454,51.08837 -9.01563,64.87695 14.31891,13.78858 36.77047,16.26232 55.33203,10.60547 18.56155,-5.65685 34.8252,-22.62749 44.01758,-45.07813 9.19239,-22.45064 -1.94509,-55.33059 -31.46679,-68.765621 -3.69022,-1.679378 -7.37814,-2.339495 -11.00586,-2.208984 z m 61.15039,89.449215 c -13.28415,-0.68535 -24.95341,6.16378 -36.00196,16.88086 -17.67767,17.14734 -21.03711,35.88672 -21.03711,35.88672 -1.41421,14.49569 -3.7e-4,33.05742 12.55078,44.01758 12.55115,10.96015 50.2047,8.13078 72.125,-0.17773 21.92031,-8.3085 24.75,-33.94141 24.75,-33.94141 0,0 -1.59205,-34.82428 -26.51757,-52.50195 -9.34707,-6.62913 -17.89866,-9.75285 -25.86914,-10.16407 z m -168.05469,3.97657 c -17.23573,-0.17678 -36.41574,4.41997 -57.27539,13.08203 -41.7193,17.32411 -90.15625,59.75 -90.15625,59.75 -8.13172,5.65685 -43.132599,47.37539 -26.869142,80.25586 16.263455,32.88047 68.588052,29.69933 103.589842,28.63867 35.00179,-1.06066 65.05469,39.59766 65.05469,39.59766 0,0 32.17226,38.18355 65.05273,38.5371 32.88046,0.35356 51.61914,-57.98242 51.61914,-57.98242 0,0 19.79899,-62.22537 0,-109.95508 -19.79899,-47.7297 -39.24329,-55.50753 -65.40625,-76.36718 -13.08147,-10.42983 -28.37365,-15.37987 -45.60937,-15.55664 z" /><path
         id="path7"
         style="opacity:1;fill:#000000;fill-opacity:1;stroke:none;stroke-width:5;stroke-dasharray:none;stroke-opacity:1"
         d="m 288.0625,69.25 c 0,0 -3.8125,4.4375 -8.3125,7.375 -4.5,2.9375 -7.6875,4.1875 -16,5.25 -8.3125,1.0625 -8.0625,5.125 -8.0625,5.125 0.875,6.4375 3.0625,4.0625 13.5,3.9375 C 279.625,90.8125 296.0625,78.5 296.0625,78.5 L 293.25,72.6875 Z m -21.49219,40.55078 c -3.26666,0.0427 -7.36595,1.49029 -10.59765,3.77734 -5.74524,4.06586 -20.32953,7.33709 -30.14063,5.7461 -9.81111,-1.59099 -24.48242,1.85547 -24.48242,1.85547 -4.41942,16.44024 -1.4155,14.7611 12.01953,11.40234 13.43503,-3.35876 15.64493,-1.67915 25.63281,-2.12109 9.98788,-0.44194 16.17595,-7.24728 23.77735,-9.81055 7.60139,-2.56326 10.78289,-3.7134 9.10351,-8.13281 -0.73473,-1.9335 -2.77176,-2.75003 -5.3125,-2.7168 z m -79.97265,0.77734 c -7.18067,-0.1875 -22.33204,0.0469 -28.66016,4.92188 -8.4375,6.5 -16.0625,7.8125 -16.0625,7.8125 0,0 -6.125,-0.75 -5.8125,5.625 0.3125,6.375 7.25,4.125 7.25,4.125 0,0 8.9375,0.25 15.25,-6.8125 6.3125,-7.0625 21.375,-5.5 21.375,-5.5 0,0 23.5625,3.0625 10.5625,-10 0,0 -1.50879,-0.10938 -3.90234,-0.17188 z m 144.94726,0.0391 c 0,0 -11.40307,7.51403 -6.93945,11.09375 4.46361,3.57973 26.16354,2.51814 35.62109,1.72265 9.45755,-0.7955 9.06055,-6.71679 9.06055,-6.71679 0.35355,-5.08233 -9.01581,-1.636 -23.37891,-1.5918 -14.36311,0.0442 -14.36328,-4.50781 -14.36328,-4.50781 z m 8.6582,32.35547 c -2.5895,0.0259 -3.79687,0.92382 -3.79687,0.92382 0,0 -2.12109,4.24319 2.38672,8.57422 4.5078,4.33103 20.59412,9.27984 39.95117,8.83789 19.35705,-0.44194 29.78711,-6.71676 29.78711,-7.07031 0,-0.35356 0.88281,-8.92773 0.88281,-8.92773 0,0 -10.34128,2.74039 -24.30664,5.83398 -13.96536,3.0936 -31.8186,-4.24288 -38.71289,-6.89453 -2.58536,-0.99437 -4.6377,-1.29288 -6.19141,-1.27734 z m -196.3164,8.56445 c -1.42371,-0.0777 -2.82477,0.15924 -3.70313,0.75586 -2.34229,1.59099 -11.71093,0.79492 -11.71093,0.79492 0,0 -12.0211,-0.83957 -15.55664,1.19336 -3.53553,2.03293 -13.611332,0.61914 -13.611332,0.61914 -7.557209,12.28598 0.04297,12.68359 0.04297,12.68359 0,0 9.678662,1.45863 14.716792,-2.12109 5.03814,-3.57973 15.46789,-1.59038 25.85352,-3.40234 10.38563,-1.81197 9.28201,-5.08272 8.97265,-7.73438 -0.19335,-1.65728 -2.63105,-2.65959 -5.0039,-2.78906 z m 185.49609,24.61914 c -2.55664,-0.0208 -7.12109,2.00391 -13.69531,2.90625 -9.5625,1.3125 -18,-2 -18,-2 l 5.625,12 c 0,0 17.5,0.5 23.75,-2.9375 6.25,-3.4375 4.5625,-8.375 4.5625,-8.375 -0.33203,-1.15234 -1.08008,-1.58429 -2.24219,-1.59375 z m 125.53907,16.16211 c -0.56639,0.0147 -1.04254,0.40348 -1.35743,1.33984 -1.67938,4.99394 -9.36895,5.39316 -17.89843,6.85157 -8.52947,1.4584 -7.64454,4.33007 -7.64454,4.33007 0.35356,5.48007 6.80479,3.84452 17.36719,3.53516 10.56241,-0.30936 16.13086,-9.14844 16.13086,-9.14844 0,0 -4.14331,-6.97202 -6.59765,-6.9082 z m -132.7461,22.28906 c 0,0 -24.92618,11.84257 -34.91406,13.78711 -9.98788,1.94454 -16.61578,3.09379 -25.18945,2.74024 -8.57367,-0.35355 -9.37073,-2.47466 -17.41407,-2.1211 -8.04334,0.35355 -24.6582,1.29883 -40.0332,8.48633 -15.375,7.1875 -25,10 -21.9375,18.8125 3.0625,8.8125 16.75,-0.6875 16.75,-0.6875 0,0 21.5625,-11.4375 37,-11.625 15.4375,-0.1875 45.96261,2.42649 62.31445,-4.29102 16.35185,-6.71752 26.69349,-9.58927 30.14063,-12.63867 3.44715,-3.04939 9.98859,-3.62406 -6.7168,-12.46289 z m 115.11914,3.9375 c -1.11348,0.008 -2.33582,0.29453 -3.39648,1.18946 -2.82843,2.38649 -13.52334,4.59532 -28.10742,3.62304 -14.58407,-0.97227 -25.0143,-3.97693 -32.88086,-0.4414 -7.86657,3.53554 -4.24219,13.43359 -4.24219,13.43359 0,0 5.74496,-7.33521 20.85937,-5.03711 15.1144,2.29809 31.11246,3.27029 38.89063,0.70703 7.77817,-2.56326 17.32525,-8.48587 12.28711,-12.72851 0,0 -1.55435,-0.75905 -3.41016,-0.7461 z m 40.76758,20.01758 c 0,0 -2.75,0 -9.3125,4.1875 -6.5625,4.1875 -19.6875,1.75 -25.125,1.625 -5.4375,-0.125 -5.375,3.375 -5.375,3.375 0.25,2.25 0,5.8125 16.3125,5.875 16.3125,0.0625 22.5625,-6.375 22.5625,-6.375 z m -84.33008,14.64062 c -1.48742,0.0647 -3.60742,1.14844 -7.04492,2.67188 -5.5,2.4375 -16.625,2.0625 -16.625,2.0625 l 2.9375,7.5 c 0,0 15.25,-1 21.3125,-4.4375 6.0625,-3.4375 1.5625,-6.6875 1.5625,-6.6875 -0.58594,-0.82031 -1.25012,-1.14819 -2.14258,-1.10938 z m -36.28906,1.26758 c 0,0 -28.7279,0.61892 -43.75391,7.24805 C 298.66343,268.34787 278.625,281.75 278.625,281.75 c 0,0 -14.96305,8.78214 -22.56445,9.66602 -7.6014,0.88389 -12.15361,0.13377 -11.75586,7.07226 0.39775,6.93848 9.54687,5.83203 9.54687,5.83203 0,0 17.58869,-0.57281 30.80274,-11.40039 13.21406,-10.82757 28.7207,-22.98242 44.0332,-25.04492 15.3125,-2.0625 24.60049,-3.24012 27.73828,-4.30078 3.13779,-1.06066 7.38154,4.8e-4 1.01758,-9.10352 z M 219.4375,274.25 c -8.0625,-0.125 -9.5,1.1875 -9.5,1.1875 0,0 -20.6875,8.9375 -27.25,6.9375 -6.5625,-2 -28.80256,-1.919 -39.58594,-1.38867 -10.78337,0.53033 -38.89159,6.7171 -43.576169,8.39648 -4.684582,1.67938 -12.462891,-1.41406 -12.462891,-1.41406 -5.562477,9.09423 -3.625,11.15625 -1.375,12.15625 2.25,1 25.41706,-0.39955 33.90234,-3.66992 8.48529,-3.27037 50.3813,-1.94531 60.01563,-1.94531 9.63433,0 18.03164,-2.56213 23.51172,-6.09766 5.48008,-3.53554 15.95328,-5.43723 19.04687,-5.6582 3.09359,-0.22097 9.28152,-1.63546 9.06055,-4.28711 C 231.00364,275.81515 227.5,274.375 219.4375,274.25 Z m 116.79688,27.21875 c -3.45313,0 -8.29688,1.28125 -14.98438,4.40625 -13.375,6.25 -31.24772,6.13619 -43.44531,6.57812 -12.1976,0.44195 -39.59766,15.11329 -39.59766,15.11329 -3.41841,1.06721 -6.26953,3.74609 -3.64453,7.74609 2.625,4 8.875,0.75 8.875,0.75 0,0 2.68039,-1.0704 16.60156,-7.125 13.92116,-6.05461 26.39844,-5.8125 41.30469,-6.21875 14.90625,-0.40625 22.8125,-5.46875 22.8125,-5.46875 0,0 3.96875,-2.75 12.96875,-4.75 9,-2 8,-3.75 5.75,-7.75 -1.125,-2 -3.1875,-3.28125 -6.64062,-3.28125 z m -169.9336,17.92969 c -6.96387,0.36328 -16.92578,3.39844 -31.17578,8.78906 -19,7.1875 -35.0625,26.0625 -35.0625,26.0625 11.93932,11.83354 18.29037,3.54637 19.79297,-0.87305 1.5026,-4.41941 15.33203,-9.81445 27.08203,-14.93945 11.75,-5.125 28.6875,-7.4375 38.875,-6.5 10.1875,0.9375 13.25,-9.5 4.8125,-9.4375 -8.4375,0.0625 -11.5,-0.625 -18.3125,-2.5625 -1.70312,-0.48438 -3.69043,-0.66016 -6.01172,-0.53906 z m 129.87891,30.99609 c -5.7786,0.016 -17.34766,7.44727 -24.49219,14.16797 -7.375,6.9375 -49.0625,12.75 -49.0625,12.75 14.75,16.0625 17.96839,9.34211 28.26562,8.76758 10.29726,-0.57452 29.6543,-14.58399 29.6543,-14.58399 0,0 10.47293,-10.0754 14.75977,-10.38476 4.28683,-0.30936 6.62987,-1.01808 6.80664,-5.4375 0.17678,-4.41942 0.17589,-4.77167 -5.39258,-5.25781 -0.17401,-0.0152 -0.35266,-0.022 -0.53906,-0.0215 z m 70.61523,20.83789 c -4.42566,0.022 -12.44336,1.0332 -23.73242,6.26758 C 325,385.875 306.5,388.25 301.75,396.8125 c -4.75,8.5625 -12.125,15.8125 -5.0625,18.3125 7.0625,2.5 7.1875,-1.6875 7.1875,-1.6875 0,0 6.25,-12.5 15.8125,-15.5625 9.5625,-3.0625 27.9375,-8.5 30.9375,-11.6875 3,-3.1875 12.60156,-3.37695 12.60156,-3.37695 0,0 15.78524,1.45776 7.58594,-11.24805 0,0 -1.36218,-0.34326 -4.01758,-0.33008 z" /></g></g></svg>
