<?xml version="1.0" encoding="UTF-8" standalone="no"?>
<!-- Created with Inkscape (http://www.inkscape.org/) -->

<svg
   width="512"
   height="512"
   viewBox="0 0 512 512"
   version="1.1"
   id="svg1"
   xml:space="preserve"
   inkscape:version="1.4 (e7c3feb1, 2024-10-09)"
   sodipodi:docname="TigerDine Emblem Vector.svg"
   xmlns:inkscape="http://www.inkscape.org/namespaces/inkscape"
   xmlns:sodipodi="http://sodipodi.sourceforge.net/DTD/sodipodi-0.dtd"
   xmlns="http://www.w3.org/2000/svg"
   xmlns:svg="http://www.w3.org/2000/svg"><sodipodi:namedview
     id="namedview1"
     pagecolor="#ffffff"
     bordercolor="#111111"
     borderopacity="1"
     inkscape:showpageshadow="0"
     inkscape:pageopacity="0"
     inkscape:pagecheckerboard="1"
     inkscape:deskcolor="#d1d1d1"
     inkscape:document-units="px"
     inkscape:zoom="1"
     inkscape:cx="277"
     inkscape:cy="294.5"
     inkscape:window-width="1512"
     inkscape:window-height="842"
     inkscape:window-x="0"
     inkscape:window-y="34"
     inkscape:window-maximized="1"
     inkscape:current-layer="layer4"><inkscape:page
       x="0"
       y="0"
       width="512"
       height="512"
       id="page2"
       margin="0"
       bleed="0" /></sodipodi:namedview><defs
     id="defs1" /><g
     inkscape:groupmode="layer"
     id="layer2"
     inkscape:label="Traced"
     style="opacity:1"><g
       inkscape:groupmode="layer"
       id="layer4"
       inkscape:label="Cutlery"
       inkscape:export-filename="TigerDine Emblem Vector Cutlery.svg"
       inkscape:export-xdpi="96"
       inkscape:export-ydpi="96"><path
         id="path6"
         style="fill:#9f9f9f;fill-opacity:1;stroke:#000000;stroke-width:5;stroke-dasharray:none;stroke-opacity:1"
         d="M 92.716797,33.976562 C 90.336426,34.013184 87.40625,34.6875 84.125,36.75 75.375,42.25 82.75,53.25 84,54 c 1.25,0.75 62.3457,62.3457 62.3457,62.3457 0,0 9.0293,11.8418 -3.1582,2.9668 -12.1875,-8.875 -67,-62.375 -67,-62.375 0,0 -6.1875,-5.875 -13.5,0.875 -7.3125,6.75 -0.1875,13 -0.1875,13 l 53.8125,52.375 c 0,0 18.3125,24.5 -4.125,3.375 -22.4375,-21.125 -51.875,-51.875 -51.875,-51.875 0,0 -7.8125,-6.125 -14.6875,-1 -6.875,5.125 -3,10.9375 -1.25,13.125 1.75,2.1875 53.648438,53.90234 53.648438,53.90234 0,0 10.252322,13.16914 -2.298829,2.20899 C 83.173464,131.96367 40.216797,88.742188 40.216797,88.742188 c 0,0 -4.595679,-5.657465 -13.964844,1.148437 -9.369165,6.805903 -1.679687,13.611325 -1.679687,13.611325 L 116.75,202.25 c 0,0 18.125,13 32.75,14.25 14.625,1.25 12.75,-8.75 24.125,-4.25 3.4218,1.35368 23.95911,21.06696 51.00391,47.9707 C 150.12992,333.28851 85.5,397 85.5,397 c 0,0 -16.5,13.375 -3.5,25 13,11.625 27.24805,4.38477 27.24805,4.38477 l 142.1914,-139.30274 c 60.53136,60.9933 134.06641,137.04883 134.06641,137.04883 0,0 24.17381,22.76072 38.05078,4.55273 13.87697,-18.208 -1.94349,-34.38239 -9.89844,-42.77929 l -129.73242,-130.65039 42.9336,-42.06055 c 0,0 3.44802,-3.3601 5.39257,-3.4043 1.94454,-0.0442 14.75977,0 14.75977,0 0,0 29.48828,-4.53906 52.48828,-31.03906 23,-26.5 52.25,-57 59,-81.75 6.75,-24.75 9.75,-29.75 10.75,-35.25 1,-5.5 -1,-33.25 -25,-14 -11.93988,9.576777 -100.79119,96.06551 -187.07227,180.56836 l -43.45507,-43.76367 c 0,0 -7.60034,-6.18757 -9.89844,-23.86524 -2.2981,-17.67767 -7.95516,-26.34 -16.26367,-33.9414 C 179.25205,119.14665 99.125,35.625 99.125,35.625 c 0,0 -2.440918,-1.709473 -6.408203,-1.648438 z" /></g></g></svg>
